# ProBuilder 4.4.0
# https://unity3d.com/unity/features/worldbuilding/probuilder
# 18.04.2021 21:02:22

mtllib ./Obstacle.mtl
o Obstacle

g Arch
v 0 0 0
v 0.001028061 0.07853085 0
v 0 0 1
v 0.001028061 0.07853085 1
v 0.5008566 0.06544238 0
v 0.5 0 0
v 0.5008566 0.06544238 1
v 0.5 0 1
v 0.004111528 0.1570079 0
v 0.004111528 0.1570079 1
v 0.5034263 0.1308399 0
v 0.5034263 0.1308399 1
v 0.009248018 0.2353773 0
v 0.009248018 0.2353773 1
v 0.5077066 0.1961477 0
v 0.5077066 0.1961477 1
v 0.01643419 0.3135854 0
v 0.01643419 0.3135854 1
v 0.5136952 0.2613212 0
v 0.5136952 0.2613212 1
v 0.02566528 0.3915786 0
v 0.02566528 0.3915786 1
v 0.5213878 0.3263155 0
v 0.5213878 0.3263155 1
v 0.03693485 0.4693034 0
v 0.03693485 0.4693034 1
v 0.5307791 0.3910862 0
v 0.5307791 0.3910862 1
v 0.05023527 0.5467066 0
v 0.05023527 0.5467066 1
v 0.5418627 0.4555888 0
v 0.5418627 0.4555888 1
v 0.065557 0.6237351 0
v 0.065557 0.6237351 1
v 0.554631 0.5197793 0
v 0.554631 0.5197793 1
v 0.08289027 0.7003361 0
v 0.08289027 0.7003361 1
v 0.5690751 0.5836134 0
v 0.5690751 0.5836134 1
v 0.1022224 0.7764571 0
v 0.1022224 0.7764571 1
v 0.5851855 0.6470476 0
v 0.5851855 0.6470476 1
v 0.1235409 0.8520461 0
v 0.1235409 0.8520461 1
v 0.6029506 0.7100384 0
v 0.6029506 0.7100384 1
v 0.1468303 0.927051 0
v 0.1468303 0.927051 1
v 0.6223586 0.7725425 0
v 0.6223586 0.7725425 1
v 0.1720755 1.001421 0
v 0.1720755 1.001421 1
v 0.6433964 0.8345172 0
v 0.6433964 0.8345172 1
v 0.1992588 1.075104 0
v 0.1992588 1.075104 1
v 0.666049 0.8959199 0
v 0.666049 0.8959199 1
v 0.2283616 1.14805 0
v 0.2283616 1.14805 1
v 0.6903012 0.9567087 0
v 0.6903012 0.9567087 1
v 0.2593637 1.22021 0
v 0.2593637 1.22021 1
v 0.7161365 1.016842 0
v 0.7161365 1.016842 1
v 0.2922442 1.291533 0
v 0.2922442 1.291533 1
v 0.7435369 1.076278 0
v 0.7435369 1.076278 1
v 0.3269804 1.361971 0
v 0.3269804 1.361971 1
v 0.7724836 1.134976 0
v 0.7724836 1.134976 1
v 0.3635485 1.431476 0
v 0.3635485 1.431476 1
v 0.8029571 1.192897 0
v 0.8029571 1.192897 1
v 0.4019239 1.5 0
v 0.4019239 1.5 1
v 0.8349366 1.25 0
v 0.8349366 1.25 1
v 0.4420795 1.567496 0
v 0.4420795 1.567496 1
v 0.8683996 1.306246 0
v 0.8683996 1.306246 1
v 0.4839883 1.633917 0
v 0.4839883 1.633917 1
v 0.9033237 1.361598 0
v 0.9033237 1.361598 1
v 0.5276215 1.699219 0
v 0.5276215 1.699219 1
v 0.9396846 1.416016 0
v 0.9396846 1.416016 1
v 0.5729489 1.763356 0
v 0.5729489 1.763356 1
v 0.9774575 1.469463 0
v 0.9774575 1.469463 1
v 0.61994 1.826284 0
v 0.61994 1.826284 1
v 1.016617 1.521904 0
v 1.016617 1.521904 1
v 0.6685622 1.887961 0
v 0.6685622 1.887961 1
v 1.057135 1.573301 0
v 1.057135 1.573301 1
v 0.7187822 1.948344 0
v 0.7187822 1.948344 1
v 1.098985 1.62362 0
v 1.098985 1.62362 1
v 0.7705655 2.007392 0
v 0.7705655 2.007392 1
v 1.142138 1.672827 0
v 1.142138 1.672827 1
v 0.8238769 2.065064 0
v 0.8238769 2.065064 1
v 1.186564 1.720886 0
v 1.186564 1.720886 1
v 0.8786798 2.12132 0
v 0.8786798 2.12132 1
v 1.232233 1.767767 0
v 1.232233 1.767767 1
v 0.9349363 2.176123 0
v 0.9349363 2.176123 1
v 1.279114 1.813436 0
v 1.279114 1.813436 1
v 0.9926083 2.229434 0
v 0.9926083 2.229434 1
v 1.327174 1.857862 0
v 1.327174 1.857862 1
v 1.051656 2.281218 0
v 1.051656 2.281218 1
v 1.37638 1.901015 0
v 1.37638 1.901015 1
v 1.112039 2.331438 0
v 1.112039 2.331438 1
v 1.426699 1.942865 0
v 1.426699 1.942865 1
v 1.173716 2.38006 0
v 1.173716 2.38006 1
v 1.478096 1.983383 0
v 1.478096 1.983383 1
v 1.236644 2.427051 0
v 1.236644 2.427051 1
v 1.530537 2.022542 0
v 1.530537 2.022542 1
v 1.300781 2.472378 0
v 1.300781 2.472378 1
v 1.583984 2.060315 0
v 1.583984 2.060315 1
v 1.366083 2.516012 0
v 1.366083 2.516012 1
v 1.638402 2.096676 0
v 1.638402 2.096676 1
v 1.432504 2.55792 0
v 1.432504 2.55792 1
v 1.693753 2.1316 0
v 1.693753 2.1316 1
v 1.5 2.598076 0
v 1.5 2.598076 1
v 1.75 2.165064 0
v 1.75 2.165064 1

vt 0 0
vt 0 0.07853758
vt 1 0
vt 1 0.07853758
vt 0 0.0719924
vt 0 0.006544418
vt -1 0.0719924
vt -1 0.006544418
vt 0 1
vt 0.5 1
vt 0.5 0
vt 0 0.1570482
vt 1 0.1570482
vt 0 0.150505
vt 0 0.08505698
vt -1 0.150505
vt -1 0.08505698
vt 0 0.1569406
vt 0 0.2354782
vt 1 0.1569406
vt 1 0.2354782
vt 0 0.2289321
vt 0 0.1634841
vt -1 0.2289321
vt -1 0.1634841
vt 0 0.3137737
vt 1 0.3137737
vt 0 0.3072289
vt 0 0.2417809
vt -1 0.3072289
vt -1 0.2417809
vt 0 0.3133434
vt 0 0.391881
vt 1 0.3133434
vt 1 0.391881
vt 0 0.3853361
vt 0 0.3198881
vt -1 0.3853361
vt -1 0.3198881
vt 0 0.3912091
vt 0 0.4697467
vt 1 0.3912091
vt 1 0.4697467
vt 0 0.4632019
vt 0 0.3977539
vt -1 0.4632019
vt -1 0.3977539
vt 0 0.4687797
vt 0 0.5473172
vt 1 0.4687797
vt 1 0.5473172
vt 0 0.5407727
vt 0 0.4753247
vt -1 0.5407727
vt -1 0.4753247
vt 0 0.5460023
vt 0 0.6245399
vt 1 0.5460023
vt 1 0.6245399
vt 0 0.617995
vt 0 0.552547
vt -1 0.617995
vt -1 0.552547
vt 0 0.6228233
vt 0 0.7013609
vt 1 0.6228233
vt 1 0.7013609
vt 0 0.6948158
vt 0 0.6293679
vt -1 0.6948158
vt -1 0.6293679
vt 0 0.6991912
vt 0 0.7777288
vt 1 0.6991912
vt 1 0.7777288
vt 0 0.771185
vt 0 0.7057369
vt -1 0.771185
vt -1 0.7057369
vt 0 0.7750523
vt 0 0.85359
vt 1 0.7750523
vt 1 0.85359
vt 0 0.8470443
vt 0 0.7815963
vt -1 0.8470443
vt -1 0.7815963
vt 0 0.8503563
vt 0 0.9288938
vt 1 0.8503563
vt 1 0.9288938
vt 0 0.9223485
vt 0 0.8569006
vt -1 0.9223485
vt -1 0.8569006
vt 0 0.9250494
vt 0 1.003587
vt 1 0.9250494
vt 1 1.003587
vt 0 0.9970436
vt 0 0.9315955
vt -1 0.9970436
vt -1 0.9315955
vt 0 0.9990821
vt 0 1.07762
vt 1 0.9990821
vt 1 1.07762
vt 0 1.071075
vt 0 1.005627
vt -1 1.071075
vt -1 1.005627
vt 0 1.072403
vt 0 1.150941
vt 1 1.072403
vt 1 1.150941
vt 0 1.144396
vt 0 1.078948
vt -1 1.144396
vt -1 1.078948
vt 0 1.144963
vt 0 1.223501
vt 1 1.144963
vt 1 1.223501
vt 0 1.216956
vt 0 1.151508
vt -1 1.216956
vt -1 1.151508
vt 0 1.295248
vt 1 1.21671
vt 1 1.295248
vt 0 1.288704
vt 0 1.223256
vt -1 1.288704
vt -1 1.223256
vt 0 1.287598
vt 0 1.366135
vt 1 1.287598
vt 1 1.366135
vt 0 1.359589
vt 0 1.294141
vt -1 1.359589
vt -1 1.294141
vt 0 1.357575
vt 0 1.436112
vt 1 1.357575
vt 1 1.436112
vt 0 1.429567
vt 0 1.36412
vt -1 1.429567
vt -1 1.36412
vt 0 1.426594
vt 0 1.505132
vt 1 1.426594
vt 1 1.505132
vt 0 1.498588
vt 0 1.43314
vt -1 1.498588
vt -1 1.43314
vt 0 1.494611
vt 0 1.573148
vt 1 1.494611
vt 1 1.573148
vt 0 1.566603
vt 0 1.501155
vt -1 1.566603
vt -1 1.501155
vt 0 1.561575
vt 0 1.640113
vt 1 1.561575
vt 1 1.640113
vt 0 1.633568
vt 0 1.56812
vt -1 1.633568
vt -1 1.56812
vt 0 1.627442
vt 0 1.705979
vt 1 1.627442
vt 1 1.705979
vt 0 1.699435
vt -1 1.699435
vt 0 1.692168
vt 0 1.770705
vt 1 1.692168
vt 1 1.770705
vt 0 1.76416
vt 0 1.698712
vt -1 1.76416
vt -1 1.698712
vt 0 1.755704
vt 0 1.834242
vt 1 1.755704
vt 1 1.834242
vt 0 1.827698
vt 0 1.76225
vt -1 1.827698
vt -1 1.76225
vt 0 1.818013
vt 0 1.896551
vt 1 1.818013
vt 1 1.896551
vt 0 1.890006
vt 0 1.824558
vt -1 1.890006
vt -1 1.824558
vt 0 1.879048
vt 0 1.957586
vt 1 1.879048
vt 1 1.957586
vt 0 1.951041
vt 0 1.885593
vt -1 1.951041
vt -1 1.885593
vt 0 1.93877
vt 0 2.017308
vt 1 1.93877
vt 1 2.017308
vt 0 2.010761
vt 0 1.945313
vt -1 2.010761
vt -1 1.945313
vt 0 1.997133
vt 0 2.07567
vt 1 1.997133
vt 1 2.07567
vt 0 2.069126
vt 0 2.003679
vt -1 2.069126
vt -1 2.003679
vt 0 2.054101
vt 0 2.132638
vt 1 2.054101
vt 1 2.132638
vt 0 2.126095
vt 0 2.060647
vt -1 2.126095
vt -1 2.060647
vt -2.109639 0
vt -2.188176 0
vt -2.109639 1
vt -2.188176 1
vt 2.181629 0
vt 2.116181 0
vt 2.181629 1
vt 2.116181 1
vt -2.163698 0
vt -2.242235 0
vt -2.163698 1
vt -2.242235 1
vt 2.235693 0
vt 2.170245 0
vt 2.235693 1
vt 2.170245 1
vt -2.216251 0
vt -2.294788 0
vt -2.216251 1
vt -2.294788 1
vt 2.288243 0
vt 2.222795 0
vt 2.288243 1
vt 2.222795 1
vt -2.267259 0
vt -2.345797 0
vt -2.267259 1
vt -2.345797 1
vt 2.339249 0
vt 2.273802 0
vt 2.339249 1
vt 2.273802 1
vt -2.31668 0
vt -2.395218 0
vt -2.31668 1
vt -2.395218 1
vt 2.388674 0
vt 2.323226 0
vt 2.388674 1
vt 2.323226 1
vt -2.364496 0
vt -2.443034 0
vt -2.364496 1
vt -2.443034 1
vt 2.436487 0
vt 2.371039 0
vt 2.436487 1
vt 2.371039 1
vt -2.410652 0
vt -2.48919 0
vt -2.410652 1
vt -2.48919 1
vt 2.482647 0
vt 2.417199 0
vt 2.482647 1
vt 2.417199 1
vt -2.455141 0
vt -2.533678 0
vt -2.455141 1
vt -2.533678 1
vt 2.527133 0
vt 2.461685 0
vt 2.527133 1
vt 2.461685 1
vt -2.497915 0
vt -2.576453 0
vt -2.497915 1
vt -2.576453 1
vt 2.569908 0
vt 2.50446 0
vt 2.569908 1
vt 2.50446 1
vt -2.538951 0
vt -2.617489 0
vt -2.538951 1
vt -2.617489 1
vt 2.610944 0
vt 2.545495 0
vt 2.610944 1
vt 2.545495 1
vt -1 1
vt -1 1.5
vt 0 1.5
vt 0.001028061 0.07853085
vt 0.5008566 0.06544238
vt -0.001028061 0.07853085
vt -0.5008566 0.06544238
vt -0.5 0
vt 0.004111528 0.1570079
vt 0.5034263 0.1308399
vt -0.004111528 0.1570079
vt -0.5034263 0.1308399
vt 0.009248018 0.2353773
vt 0.5077066 0.1961477
vt -0.009248018 0.2353773
vt -0.5077066 0.1961477
vt 0.01643419 0.3135854
vt 0.5136952 0.2613212
vt -0.01643419 0.3135854
vt -0.5136952 0.2613212
vt 0.02566528 0.3915786
vt 0.5213878 0.3263155
vt -0.02566528 0.3915786
vt -0.5213878 0.3263155
vt 0.03693485 0.4693034
vt 0.5307791 0.3910862
vt -0.03693485 0.4693034
vt -0.5307791 0.3910862
vt 0.05023527 0.5467066
vt 0.5418627 0.4555888
vt -0.05023527 0.5467066
vt -0.5418627 0.4555888
vt 0.065557 0.6237351
vt 0.554631 0.5197793
vt -0.065557 0.6237351
vt -0.554631 0.5197793
vt 0.08289027 0.7003361
vt 0.5690751 0.5836134
vt -0.08289027 0.7003361
vt -0.5690751 0.5836134
vt 0.1022224 0.7764571
vt 0.5851855 0.6470476
vt -0.1022224 0.7764571
vt -0.5851855 0.6470476
vt 0.1235409 0.8520461
vt 0.6029506 0.7100384
vt -0.1235409 0.8520461
vt -0.6029506 0.7100384
vt 0.1468303 0.927051
vt 0.6223586 0.7725425
vt -0.1468303 0.927051
vt -0.6223586 0.7725425
vt 0.1720755 1.001421
vt 0.6433964 0.8345172
vt -0.1720755 1.001421
vt -0.6433964 0.8345172
vt 0.1992588 1.075104
vt 0.666049 0.8959199
vt -0.1992588 1.075104
vt -0.666049 0.8959199
vt 0.2283616 1.14805
vt 0.6903012 0.9567087
vt -0.2283616 1.14805
vt -0.6903012 0.9567087
vt 0.2593637 1.22021
vt 0.7161365 1.016842
vt -0.2593637 1.22021
vt -0.7161365 1.016842
vt 0.2922442 1.291533
vt 0.7435369 1.076278
vt -0.2922442 1.291533
vt -0.7435369 1.076278
vt 0.3269804 1.361971
vt 0.7724836 1.134976
vt -0.3269804 1.361971
vt -0.7724836 1.134976
vt 0.3635485 1.431476
vt 0.8029571 1.192897
vt -0.3635485 1.431476
vt -0.8029571 1.192897
vt 0.4019239 1.5
vt 0.8349366 1.25
vt -0.4019239 1.5
vt -0.8349366 1.25
vt 0.4420795 1.567496
vt 0.8683996 1.306246
vt -0.4420795 1.567496
vt -0.8683996 1.306246
vt 0.4839883 1.633917
vt 0.9033237 1.361598
vt -0.4839883 1.633917
vt -0.9033237 1.361598
vt 0.5276215 1.699219
vt 0.9396846 1.416016
vt -0.5276215 1.699219
vt -0.9396846 1.416016
vt 0.5729489 1.763356
vt 0.9774575 1.469463
vt -0.5729489 1.763356
vt -0.9774575 1.469463
vt 0.61994 1.826284
vt 1.016617 1.521904
vt -0.61994 1.826284
vt -1.016617 1.521904
vt 0.6685622 1.887961
vt 1.057135 1.573301
vt -0.6685622 1.887961
vt -1.057135 1.573301
vt 0.7187822 1.948344
vt 1.098985 1.62362
vt -0.7187822 1.948344
vt -1.098985 1.62362
vt 0.7705655 2.007392
vt 1.142138 1.672827
vt -0.7705655 2.007392
vt -1.142138 1.672827
vt 0.8238769 2.065064
vt 1.186564 1.720886
vt -0.8238769 2.065064
vt -1.186564 1.720886
vt 0.8786798 2.12132
vt 1.232233 1.767767
vt -0.8786798 2.12132
vt -1.232233 1.767767
vt 0.9349363 2.176123
vt 1.279114 1.813436
vt -0.9349363 2.176123
vt -1.279114 1.813436
vt 0.9926083 2.229434
vt 1.327174 1.857862
vt -0.9926083 2.229434
vt -1.327174 1.857862
vt 1.051656 2.281218
vt 1.37638 1.901015
vt -1.051656 2.281218
vt -1.37638 1.901015
vt 1.112039 2.331438
vt 1.426699 1.942865
vt -1.112039 2.331438
vt -1.426699 1.942865
vt 1.173716 2.38006
vt 1.478096 1.983383
vt -1.173716 2.38006
vt -1.478096 1.983383
vt 1.236644 2.427051
vt 1.530537 2.022542
vt -1.236644 2.427051
vt -1.530537 2.022542
vt 1.300781 2.472378
vt 1.583984 2.060315
vt -1.300781 2.472378
vt -1.583984 2.060315
vt 1.366083 2.516012
vt 1.638402 2.096676
vt -1.366083 2.516012
vt -1.638402 2.096676
vt 1.432504 2.55792
vt 1.693753 2.1316
vt -1.432504 2.55792
vt -1.693753 2.1316
vt 1.5 2.598076
vt 1.75 2.165064
vt -1.5 2.598076
vt -1.75 2.165064

vn -0.9999143 0.01309005 0
vn 0.9999143 -0.01308884 0
vn 0 -1 0
vn -0.999229 0.03926105 0
vn 0.999229 -0.03926286 0
vn -0.9978591 0.0654017 0
vn 0.9978591 -0.0654005 0
vn -0.9958051 0.09149984 0
vn 0.9958049 -0.09150165 0
vn -0.9930685 0.1175372 0
vn 0.9930685 -0.1175372 0
vn -0.9896514 0.1434927 0
vn 0.9896514 -0.1434927 0
vn -0.9855558 0.1693511 0
vn 0.985556 -0.1693499 0
vn -0.9807857 0.195088 0
vn 0.9807853 -0.1950902 0
vn -0.9753417 0.2207002 0
vn 0.9753425 -0.2206963 0
vn -0.9692312 0.246152 0
vn 0.9692303 -0.2461558 0
vn -0.9624547 0.2714422 0
vn 0.962456 -0.2714377 0
vn -0.9550207 0.2965392 0
vn 0.9550201 -0.2965411 0
vn -0.9469298 0.3214407 0
vn 0.946929 -0.3214428 0
vn -0.9381909 0.3461182 0
vn 0.9381915 -0.3461168 0
vn -0.928809 0.3705589 0
vn 0.9288101 -0.3705561 0
vn -0.9187921 0.3947419 0
vn 0.9187906 -0.3947453 0
vn -0.9081429 0.4186604 0
vn 0.9081427 -0.4186608 0
vn -0.8968735 0.4422871 0
vn 0.8968744 -0.4422853 0
vn -0.8849879 0.4656141 0
vn 0.8849878 -0.4656143 0
vn -0.8724948 0.4886234 0
vn 0.8724943 -0.4886242 0
vn -0.8594065 0.5112931 0
vn 0.859407 -0.511292 0
vn -0.8457285 0.5336135 0
vn 0.8457279 -0.5336144 0
vn -0.8314693 0.5555707 0
vn 0.8314692 -0.5555708 0
vn -0.8166422 0.5771442 0
vn 0.8166419 -0.5771446 0
vn -0.8012531 0.5983257 0
vn 0.8012533 -0.5983253 0
vn -0.7853169 0.6190941 0
vn 0.7853166 -0.6190944 0
vn -0.7688416 0.6394392 0
vn 0.7688425 -0.6394383 0
vn -0.7518412 0.6593442 0
vn 0.7518399 -0.6593457 0
vn -0.7343219 0.6788014 0
vn 0.7343231 -0.6788001 0
vn -0.7163007 0.6977918 0
vn 0.7163018 -0.6977906 0
vn -0.6977918 0.7163007 0
vn 0.6977887 -0.7163036 0
vn -0.6787999 0.7343233 0
vn 0.6788031 -0.7343203 0
vn -0.6593457 0.7518399 0
vn 0.6593446 -0.7518409 0
vn -0.6394408 0.7688404 0
vn 0.6394392 -0.7688417 0
vn -0.6190926 0.785318 0
vn 0.6190935 -0.7853173 0
vn -0.5983271 0.8012519 0
vn 0.5983262 -0.8012527 0
vn -0.5771428 0.8166432 0
vn 0.5771438 -0.8166425 0
vn -0.5555707 0.8314693 0
vn 0.5555708 -0.8314692 0
vn -0.5336149 0.8457276 0
vn 0.5336152 -0.8457273 0
vn -0.5112933 0.8594063 0
vn 0.5112932 -0.8594064 0
vn 0.8660254 0.5 0
vn 0 0 1
vn 0 0 -1

usemtl ProBuilderDefault
f 3/3/1 4/4/1 2/2/1 1/1/1
f 7/7/2 8/8/2 6/6/2 5/5/2
f 1/1/3 6/11/3 8/10/3 3/9/3
f 4/4/4 10/13/4 9/12/4 2/2/4
f 12/16/5 7/17/5 5/15/5 11/14/5
f 10/20/6 14/21/6 13/19/6 9/18/6
f 16/24/7 12/25/7 11/23/7 15/22/7
f 14/21/8 18/27/8 17/26/8 13/19/8
f 20/30/9 16/31/9 15/29/9 19/28/9
f 18/34/10 22/35/10 21/33/10 17/32/10
f 24/38/11 20/39/11 19/37/11 23/36/11
f 22/42/12 26/43/12 25/41/12 21/40/12
f 28/46/13 24/47/13 23/45/13 27/44/13
f 26/50/14 30/51/14 29/49/14 25/48/14
f 32/54/15 28/55/15 27/53/15 31/52/15
f 30/58/16 34/59/16 33/57/16 29/56/16
f 36/62/17 32/63/17 31/61/17 35/60/17
f 34/66/18 38/67/18 37/65/18 33/64/18
f 40/70/19 36/71/19 35/69/19 39/68/19
f 38/74/20 42/75/20 41/73/20 37/72/20
f 44/78/21 40/79/21 39/77/21 43/76/21
f 42/82/22 46/83/22 45/81/22 41/80/22
f 48/86/23 44/87/23 43/85/23 47/84/23
f 46/90/24 50/91/24 49/89/24 45/88/24
f 52/94/25 48/95/25 47/93/25 51/92/25
f 50/98/26 54/99/26 53/97/26 49/96/26
f 56/102/27 52/103/27 51/101/27 55/100/27
f 54/106/28 58/107/28 57/105/28 53/104/28
f 60/110/29 56/111/29 55/109/29 59/108/29
f 58/114/30 62/115/30 61/113/30 57/112/30
f 64/118/31 60/119/31 59/117/31 63/116/31
f 62/122/32 66/123/32 65/121/32 61/120/32
f 68/126/33 64/127/33 63/125/33 67/124/33
f 66/129/34 70/130/34 69/128/34 65/124/34
f 72/133/35 68/134/35 67/132/35 71/131/35
f 70/137/36 74/138/36 73/136/36 69/135/36
f 76/141/37 72/142/37 71/140/37 75/139/37
f 74/145/38 78/146/38 77/144/38 73/143/38
f 80/149/39 76/150/39 75/148/39 79/147/39
f 78/153/40 82/154/40 81/152/40 77/151/40
f 84/157/41 80/158/41 79/156/41 83/155/41
f 82/161/42 86/162/42 85/160/42 81/159/42
f 88/165/43 84/166/43 83/164/43 87/163/43
f 86/169/44 90/170/44 89/168/44 85/167/44
f 92/173/45 88/174/45 87/172/45 91/171/45
f 90/177/46 94/178/46 93/176/46 89/175/46
f 96/180/47 92/173/47 91/171/47 95/179/47
f 94/183/48 98/184/48 97/182/48 93/181/48
f 100/187/49 96/188/49 95/186/49 99/185/49
f 98/191/50 102/192/50 101/190/50 97/189/50
f 104/195/51 100/196/51 99/194/51 103/193/51
f 102/199/52 106/200/52 105/198/52 101/197/52
f 108/203/53 104/204/53 103/202/53 107/201/53
f 106/207/54 110/208/54 109/206/54 105/205/54
f 112/211/55 108/212/55 107/210/55 111/209/55
f 110/215/56 114/216/56 113/214/56 109/213/56
f 116/219/57 112/220/57 111/218/57 115/217/57
f 114/223/58 118/224/58 117/222/58 113/221/58
f 120/227/59 116/228/59 115/226/59 119/225/59
f 118/231/60 122/232/60 121/230/60 117/229/60
f 124/235/61 120/236/61 119/234/61 123/233/61
f 122/239/62 126/240/62 125/238/62 121/237/62
f 128/243/63 124/244/63 123/242/63 127/241/63
f 126/247/64 130/248/64 129/246/64 125/245/64
f 132/251/65 128/252/65 127/250/65 131/249/65
f 130/255/66 134/256/66 133/254/66 129/253/66
f 136/259/67 132/260/67 131/258/67 135/257/67
f 134/263/68 138/264/68 137/262/68 133/261/68
f 140/267/69 136/268/69 135/266/69 139/265/69
f 138/271/70 142/272/70 141/270/70 137/269/70
f 144/275/71 140/276/71 139/274/71 143/273/71
f 142/279/72 146/280/72 145/278/72 141/277/72
f 148/283/73 144/284/73 143/282/73 147/281/73
f 146/287/74 150/288/74 149/286/74 145/285/74
f 152/291/75 148/292/75 147/290/75 151/289/75
f 150/295/76 154/296/76 153/294/76 149/293/76
f 156/299/77 152/300/77 151/298/77 155/297/77
f 154/303/78 158/304/78 157/302/78 153/301/78
f 160/307/79 156/308/79 155/306/79 159/305/79
f 158/311/80 162/312/80 161/310/80 157/309/80
f 164/315/81 160/316/81 159/314/81 163/313/81
f 163/9/82 161/319/82 162/318/82 164/317/82
f 8/11/83 7/321/83 4/320/83 3/1/83
f 5/323/84 6/324/84 1/1/84 2/322/84
f 7/321/83 12/326/83 10/325/83 4/320/83
f 11/328/84 5/323/84 2/322/84 9/327/84
f 12/326/83 16/330/83 14/329/83 10/325/83
f 15/332/84 11/328/84 9/327/84 13/331/84
f 16/330/83 20/334/83 18/333/83 14/329/83
f 19/336/84 15/332/84 13/331/84 17/335/84
f 20/334/83 24/338/83 22/337/83 18/333/83
f 23/340/84 19/336/84 17/335/84 21/339/84
f 24/338/83 28/342/83 26/341/83 22/337/83
f 27/344/84 23/340/84 21/339/84 25/343/84
f 28/342/83 32/346/83 30/345/83 26/341/83
f 31/348/84 27/344/84 25/343/84 29/347/84
f 32/346/83 36/350/83 34/349/83 30/345/83
f 35/352/84 31/348/84 29/347/84 33/351/84
f 36/350/83 40/354/83 38/353/83 34/349/83
f 39/356/84 35/352/84 33/351/84 37/355/84
f 40/354/83 44/358/83 42/357/83 38/353/83
f 43/360/84 39/356/84 37/355/84 41/359/84
f 44/358/83 48/362/83 46/361/83 42/357/83
f 47/364/84 43/360/84 41/359/84 45/363/84
f 48/362/83 52/366/83 50/365/83 46/361/83
f 51/368/84 47/364/84 45/363/84 49/367/84
f 52/366/83 56/370/83 54/369/83 50/365/83
f 55/372/84 51/368/84 49/367/84 53/371/84
f 56/370/83 60/374/83 58/373/83 54/369/83
f 59/376/84 55/372/84 53/371/84 57/375/84
f 60/374/83 64/378/83 62/377/83 58/373/83
f 63/380/84 59/376/84 57/375/84 61/379/84
f 64/378/83 68/382/83 66/381/83 62/377/83
f 67/384/84 63/380/84 61/379/84 65/383/84
f 68/382/83 72/386/83 70/385/83 66/381/83
f 71/388/84 67/384/84 65/383/84 69/387/84
f 72/386/83 76/390/83 74/389/83 70/385/83
f 75/392/84 71/388/84 69/387/84 73/391/84
f 76/390/83 80/394/83 78/393/83 74/389/83
f 79/396/84 75/392/84 73/391/84 77/395/84
f 80/394/83 84/398/83 82/397/83 78/393/83
f 83/400/84 79/396/84 77/395/84 81/399/84
f 84/398/83 88/402/83 86/401/83 82/397/83
f 87/404/84 83/400/84 81/399/84 85/403/84
f 88/402/83 92/406/83 90/405/83 86/401/83
f 91/408/84 87/404/84 85/403/84 89/407/84
f 92/406/83 96/410/83 94/409/83 90/405/83
f 95/412/84 91/408/84 89/407/84 93/411/84
f 96/410/83 100/414/83 98/413/83 94/409/83
f 99/416/84 95/412/84 93/411/84 97/415/84
f 100/414/83 104/418/83 102/417/83 98/413/83
f 103/420/84 99/416/84 97/415/84 101/419/84
f 104/418/83 108/422/83 106/421/83 102/417/83
f 107/424/84 103/420/84 101/419/84 105/423/84
f 108/422/83 112/426/83 110/425/83 106/421/83
f 111/428/84 107/424/84 105/423/84 109/427/84
f 112/426/83 116/430/83 114/429/83 110/425/83
f 115/432/84 111/428/84 109/427/84 113/431/84
f 116/430/83 120/434/83 118/433/83 114/429/83
f 119/436/84 115/432/84 113/431/84 117/435/84
f 120/434/83 124/438/83 122/437/83 118/433/83
f 123/440/84 119/436/84 117/435/84 121/439/84
f 124/438/83 128/442/83 126/441/83 122/437/83
f 127/444/84 123/440/84 121/439/84 125/443/84
f 128/442/83 132/446/83 130/445/83 126/441/83
f 131/448/84 127/444/84 125/443/84 129/447/84
f 132/446/83 136/450/83 134/449/83 130/445/83
f 135/452/84 131/448/84 129/447/84 133/451/84
f 136/450/83 140/454/83 138/453/83 134/449/83
f 139/456/84 135/452/84 133/451/84 137/455/84
f 140/454/83 144/458/83 142/457/83 138/453/83
f 143/460/84 139/456/84 137/455/84 141/459/84
f 144/458/83 148/462/83 146/461/83 142/457/83
f 147/464/84 143/460/84 141/459/84 145/463/84
f 148/462/83 152/466/83 150/465/83 146/461/83
f 151/468/84 147/464/84 145/463/84 149/467/84
f 152/466/83 156/470/83 154/469/83 150/465/83
f 155/472/84 151/468/84 149/467/84 153/471/84
f 156/470/83 160/474/83 158/473/83 154/469/83
f 159/476/84 155/472/84 153/471/84 157/475/84
f 160/474/83 164/478/83 162/477/83 158/473/83
f 163/480/84 159/476/84 157/475/84 161/479/84

